<svg xmlns="http://www.w3.org/2000/svg" width="32" height="32" viewBox="0 0 32 32">
    <g fill="none" fill-rule="evenodd">
        <g fill="#000">
            <g transform="translate(-1841 -174) translate(1841 174)">
                <circle cx="16" cy="16" r="16" fill-opacity=".04"/>
                <path fill-opacity=".8" fill-rule="nonzero" d="M14 9.25c.38 0 .693.282.743.648l.007.102v4c0 .38-.282.693-.648.743L14 14.75h-4c-.38 0-.693-.282-.743-.648L9.25 14v-4c0-.38.282-.693.648-.743L10 9.25h4zm-.25 1h-3.5v3.5h3.5v-3.5zM22 9.25c.38 0 .693.282.743.648l.007.102v4c0 .38-.282.693-.648.743L22 14.75h-4c-.38 0-.693-.282-.743-.648L17.25 14v-4c0-.38.282-.693.648-.743L18 9.25h4zm-.25 1h-3.5v3.5h3.5v-3.5zM14 17.25c.38 0 .693.282.743.648l.007.102v4c0 .38-.282.693-.648.743L14 22.75h-4c-.38 0-.693-.282-.743-.648L9.25 22v-4c0-.38.282-.693.648-.743L10 17.25h4zm-.25 1h-3.5v3.5h3.5v-3.5zM22 17.25c.38 0 .693.282.743.648l.007.102v4c0 .38-.282.693-.648.743L22 22.75h-4c-.38 0-.693-.282-.743-.648L17.25 22v-4c0-.38.282-.693.648-.743L18 17.25h4zm-.25 1h-3.5v3.5h3.5v-3.5z"/>
            </g>
        </g>
    </g>
</svg>
