<svg xmlns="http://www.w3.org/2000/svg" width="32" height="32" viewBox="0 0 32 32">
    <g fill="none" fill-rule="evenodd">
        <g fill="#000" fill-rule="nonzero">
            <g transform="translate(-1841 -286) translate(1841 286)">
                <circle cx="16" cy="16" r="16" fill-opacity=".04"/>
                <path fill-opacity=".8" d="M21.571 6.5c.763 0 1.429.497 1.429 1.192v16.616c0 .695-.666 1.192-1.429 1.192H10.429C9.667 25.5 9 25.002 9 24.306V7.692c0-.695.667-1.191 1.429-1.191zm0 1H10.43c-.263 0-.429.124-.429.192v16.615c0 .07.166.192.429.192l11.142.001c.264 0 .429-.123.429-.192V7.692c0-.069-.165-.192-.429-.192z"/>
                <path fill-opacity=".8" d="M15.988 18.476c2.755 0 4.988-2.233 4.988-4.988 0-2.755-2.233-4.988-4.988-4.988C13.233 8.5 11 10.733 11 13.488c.003 2.754 2.235 4.985 4.988 4.988zm0-9.038c2.237 0 4.05 1.813 4.05 4.05s-1.813 4.05-4.05 4.05-4.05-1.813-4.05-4.05c.002-2.236 1.814-4.048 4.05-4.05z"/>
                <path fill-opacity=".8" d="M15.988 14.867c.76 0 1.375-.615 1.375-1.375 0-.759-.615-1.375-1.375-1.375s-1.375.616-1.375 1.375c0 .76.616 1.375 1.375 1.375z"/>
            </g>
        </g>
    </g>
</svg>
