<svg xmlns="http://www.w3.org/2000/svg" width="32" height="32" viewBox="0 0 32 32">
    <g fill="none" fill-rule="evenodd">
        <g fill="#000" fill-rule="nonzero">
            <g transform="translate(-1841 -342) translate(1841 342)">
                <circle cx="16" cy="16" r="16" fill-opacity=".04"/>
                <path fill-opacity=".8" d="M23.125 10.824l.094.006.079.019c.203.066.352.263.352.491v11.294l-.007.086-.018.078c-.066.203-.263.352-.491.352H11.84l-.086-.006-.078-.019c-.203-.066-.352-.263-.352-.49V11.34l.006-.086.019-.078c.066-.203.263-.352.49-.352h11.286zm-.632 1.032H12.48l-.125.125v10.012l.125.125h10.012l.125-.125V11.981l-.125-.125z"/>
                <path fill-opacity=".8" d="M21.337 8.007L21.242 8H9.016c-.228 0-.425.15-.49.352l-.02.079-.006.086v12.235c0 .285.231.516.516.516.228 0 .425-.149.491-.352l.019-.079.006-.085V9.158l.125-.125h11.594c.286 0 .517-.231.517-.516 0-.229-.15-.425-.352-.491l-.079-.019z"/>
            </g>
        </g>
    </g>
</svg>
