<svg xmlns="http://www.w3.org/2000/svg" width="32" height="32" viewBox="0 0 32 32">
    <g fill="none" fill-rule="evenodd">
        <g fill="#000" fill-rule="nonzero">
            <g transform="translate(-1841 -231) translate(1841 231)">
                <circle cx="16" cy="16" r="16" fill-opacity=".04"/>
                <path fill-opacity=".8" d="M22.7 11.042c.53.142.9.623.9 1.173s-.37 1.032-.9 1.174c-.532.143-1.093-.09-1.368-.566l-.173-.1h-6.836l-.178.11-1.56 3.12h8.574l.173-.1c.275-.476.836-.708 1.367-.566.532.143.901.624.901 1.174 0 .55-.37 1.032-.9 1.174-.532.142-1.093-.09-1.368-.566l-.173-.1h-5.036l1.56 3.12.179.11h3.297l.173-.1c.275-.476.836-.708 1.367-.566.532.142.901.624.901 1.174 0 .55-.37 1.031-.9 1.174-.532.142-1.093-.09-1.368-.567l-.173-.1h-3.736c-.19 0-.365-.108-.451-.279L15.04 17.08l-.179-.11h-5.42l-.173.1c-.275.476-.836.708-1.367.566C7.369 17.493 7 17.01 7 16.46c0-.55.37-1.031.9-1.174.532-.142 1.093.09 1.368.566l.173.1h1.882l.179-.11 1.932-3.857c.086-.17.26-.278.451-.278h7.274l.173-.1c.275-.477.836-.709 1.367-.566z"/>
            </g>
        </g>
    </g>
</svg>
